<svg xmlns="http://www.w3.org/2000/svg" xmlns:xlink="http://www.w3.org/1999/xlink" xml:space="preserve" style="shape-rendering:geometricPrecision;text-rendering:geometricPrecision;image-rendering:optimizeQuality;" viewBox="0 0 6827 8533.75" x="0px" y="0px" fill-rule="evenodd" clip-rule="evenodd"><defs><style type="text/css">
   
    .fil1 {fill:none}
    .fil0 {fill:black}
   
  </style></defs><g><path class="fil0" d="M4186 5551c-7,16 -15,30 -27,42 -46,46 -121,47 -167,1l-28 -28 0 0 -1139 -1123 -462 824c-18,32 -47,55 -84,62 -64,12 -126,-31 -137,-95l-4 -22 0 0 -273 -1503 -941 -466c-29,-14 -52,-37 -63,-67 -23,-61 9,-129 70,-152l8 -3 0 0 4617 -1709 287 -106c84,-37 154,94 123,167 -593,1393 -1186,2786 -1779,4178zm-2236 -1955c-19,11 -25,35 -14,54 11,19 35,25 54,14l3404 -2075 42 56 -2666 2577c-16,15 -16,40 -1,55 15,16 40,16 55,1 4534,-4334 3219,-3109 -875,-683z"/></g><rect class="fil1" width="6827" height="6827"/><text x="0" y="6842" fill="#000000" font-size="5px" font-weight="bold" font-family="'Helvetica Neue', Helvetica, Arial-Unicode, Arial, Sans-serif">Created by IYIKON</text><text x="0" y="6847" fill="#000000" font-size="5px" font-weight="bold" font-family="'Helvetica Neue', Helvetica, Arial-Unicode, Arial, Sans-serif">from the Noun Project</text></svg>