<svg width="36" height="32" viewBox="0 0 36 32" fill="none" xmlns="http://www.w3.org/2000/svg">
<path d="M35.758 16.1237C35.7288 16.2935 35.6414 16.4505 35.5082 16.5719C35.375 16.6933 35.2031 16.7729 35.0172 16.7991L21.2593 18.7342L19.1425 31.313C19.1139 31.4829 19.0269 31.6401 18.8941 31.7619C18.7614 31.8836 18.5897 31.9636 18.4039 31.9903C18.3585 31.9967 18.3125 31.9999 18.2665 32C18.102 31.9999 17.9407 31.958 17.8007 31.8788C17.6608 31.7997 17.5477 31.6865 17.474 31.552L0.858403 1.16915C0.854976 1.16293 0.854919 1.15592 0.851664 1.14933C0.816906 1.0824 0.792372 1.01143 0.778749 0.938394C0.776484 0.925644 0.776368 0.912894 0.77474 0.899935C0.766179 0.833275 0.766688 0.765902 0.776254 0.699356C0.777768 0.689156 0.777589 0.678748 0.779512 0.668339C0.793821 0.59652 0.818678 0.526798 0.853414 0.461067C0.860791 0.446933 0.869215 0.433217 0.877525 0.419292C0.954022 0.281714 1.07628 0.169864 1.2267 0.0998303C1.24204 0.0920759 1.25738 0.0842164 1.27313 0.0773584C1.34499 0.0456867 1.42119 0.0229976 1.49968 0.00990126C1.5106 0.00825639 1.52164 0.00841296 1.53262 0.0070901C1.60599 -0.00181636 1.68029 -0.00233383 1.75381 0.00554964C1.76729 0.00709008 1.78088 0.00729073 1.7943 0.00926632C1.87456 0.0216429 1.95257 0.0440942 2.02611 0.075984C2.03302 0.0790127 2.04064 0.0790126 2.04749 0.0820761L35.2788 15.2735C35.4469 15.3504 35.584 15.4743 35.6702 15.6271C35.7563 15.7799 35.7871 15.9538 35.758 16.1237ZM6.13886 3.76427L20.7912 17.1607L31.9959 15.5845L6.13886 3.76427Z" fill="#6D81FE"/>
</svg>
