<svg xmlns="http://www.w3.org/2000/svg" data-name="Layer 1" viewBox="0 0 64 80" x="0px" y="0px"><title>2</title><path d="M13.62689,32.14209a.93142.93142,0,0,0,.77826.77606l14.45312,2.22351L31.082,49.595a.93129.93129,0,0,0,.77594.7782.96249.96249,0,0,0,.14435.01117.93151.93151,0,0,0,.83252-.51477L50.2901,14.959c.0036-.00714.00366-.0152.00708-.02277a.92931.92931,0,0,0,.0766-.24237c.00238-.01465.0025-.0293.00421-.04419a.93335.93335,0,0,0-.00159-.23047c-.00159-.01172-.0014-.02368-.00342-.03564a.93091.93091,0,0,0-.07764-.23816c-.00775-.01624-.0166-.032-.02533-.048a.83816.83816,0,0,0-.36682-.36707c-.01611-.00891-.03223-.01794-.04877-.02582a.93458.93458,0,0,0-.238-.07751c-.01147-.00189-.02307-.00171-.03461-.00323a.93652.93652,0,0,0-.23236-.00177c-.01416.00177-.02844.002-.04254.00427a.92877.92877,0,0,0-.24353.07666c-.00726.00348-.01526.00348-.02246.007L14.13037,31.16528A.9312.9312,0,0,0,13.62689,32.14209ZM44.7428,17.94086,29.35,33.33368,17.5791,31.52258Z"/><text x="0" y="79" fill="#000000" font-size="5px" font-weight="bold" font-family="'Helvetica Neue', Helvetica, Arial-Unicode, Arial, Sans-serif">Created by glyph.faisalovers</text><text x="0" y="84" fill="#000000" font-size="5px" font-weight="bold" font-family="'Helvetica Neue', Helvetica, Arial-Unicode, Arial, Sans-serif">from the Noun Project</text></svg>